<mxfile host="app.diagrams.net" modified="2021-12-02T02:16:21.383Z" agent="5.0 (Macintosh; Intel Mac OS X 10_15_7) AppleWebKit/537.36 (KHTML, like Gecko) Chrome/96.0.4664.55 Safari/537.36" etag="vE2gZNl5N3b-JPIkuwfH" version="14.7.6" type="github">
  <diagram id="6a731a19-8d31-9384-78a2-239565b7b9f0" name="Page-1">
    <mxGraphModel dx="1722" dy="114" grid="1" gridSize="10" guides="1" tooltips="1" connect="1" arrows="1" fold="1" page="1" pageScale="1" pageWidth="1169" pageHeight="827" background="none" math="0" shadow="0">
      <root>
        <mxCell id="0" />
        <mxCell id="1" parent="0" />
        <mxCell id="56" value="河图创意项目" style="strokeColor=#BAC8D3;fillColor=#23445D;fontSize=24;strokeWidth=2;fontFamily=Helvetica;html=1;fontStyle=0;spacingBottom=8;spacingRight=0;spacingLeft=83;fontColor=#FFFFFF;" parent="1" vertex="1">
          <mxGeometry x="154" y="850" width="2030" height="57" as="geometry" />
        </mxCell>
        <mxCell id="57" value="图搜相关" style="strokeColor=#BAC8D3;fillColor=#23445D;fontSize=24;strokeWidth=2;horizontal=0;fontFamily=Helvetica;html=1;fontStyle=0;fontColor=#FFFFFF;" parent="1" vertex="1">
          <mxGeometry x="154" y="930.5" width="50" height="300" as="geometry" />
        </mxCell>
        <mxCell id="58" value="COS迁移" style="strokeColor=#BAC8D3;fillColor=#5d7f99;fontSize=19;strokeWidth=2;horizontal=0;fontFamily=Helvetica;html=1;labelBackgroundColor=none;fontColor=#FFFFFF;" parent="1" vertex="1">
          <mxGeometry x="204" y="930.5" width="40" height="100" as="geometry" />
        </mxCell>
        <mxCell id="59" value="项目" style="strokeColor=#BAC8D3;fillColor=#5d7f99;fontSize=19;strokeWidth=2;fontFamily=Helvetica;html=1;labelBackgroundColor=none;fontColor=#FFFFFF;" parent="1" vertex="1">
          <mxGeometry x="154" y="850.5" width="90" height="80" as="geometry" />
        </mxCell>
        <mxCell id="60" value="图搜对接" style="strokeColor=#BAC8D3;fillColor=#5d7f99;fontSize=19;strokeWidth=2;horizontal=0;fontFamily=Helvetica;html=1;labelBackgroundColor=none;fontColor=#FFFFFF;" parent="1" vertex="1">
          <mxGeometry x="204" y="1030.5" width="40" height="100" as="geometry" />
        </mxCell>
        <mxCell id="61" value="定制化开发" style="strokeColor=#BAC8D3;fillColor=#5d7f99;fontSize=19;strokeWidth=2;horizontal=0;fontFamily=Helvetica;html=1;labelBackgroundColor=none;fontColor=#FFFFFF;" parent="1" vertex="1">
          <mxGeometry x="204" y="1130.5" width="40" height="100" as="geometry" />
        </mxCell>
        <mxCell id="62" value="版权保护" style="strokeColor=#BAC8D3;fillColor=#5d7f99;fontSize=19;strokeWidth=2;horizontal=0;fontFamily=Helvetica;html=1;labelBackgroundColor=none;fontColor=#FFFFFF;" parent="1" vertex="1">
          <mxGeometry x="204" y="1330.5" width="40" height="100" as="geometry" />
        </mxCell>
        <mxCell id="63" value="内容审核" style="strokeColor=#BAC8D3;fillColor=#5d7f99;fontSize=19;strokeWidth=2;horizontal=0;fontFamily=Helvetica;html=1;labelBackgroundColor=none;fontColor=#FFFFFF;" parent="1" vertex="1">
          <mxGeometry x="204" y="1230.5" width="40" height="100" as="geometry" />
        </mxCell>
        <mxCell id="64" value="内容安全相关" style="strokeColor=#BAC8D3;fillColor=#23445D;fontSize=24;strokeWidth=2;horizontal=0;fontFamily=Helvetica;html=1;fontStyle=0;fontColor=#FFFFFF;" parent="1" vertex="1">
          <mxGeometry x="154" y="1230.5" width="50" height="200" as="geometry" />
        </mxCell>
        <mxCell id="65" value="搜索对接" style="strokeColor=#BAC8D3;fillColor=#5d7f99;fontSize=19;strokeWidth=2;horizontal=0;fontFamily=Helvetica;html=1;labelBackgroundColor=none;fontColor=#FFFFFF;" parent="1" vertex="1">
          <mxGeometry x="204" y="1530.5" width="40" height="100" as="geometry" />
        </mxCell>
        <mxCell id="66" value="爬虫数据" style="strokeColor=#BAC8D3;fillColor=#5d7f99;fontSize=19;strokeWidth=2;horizontal=0;fontFamily=Helvetica;html=1;labelBackgroundColor=none;fontColor=#FFFFFF;" parent="1" vertex="1">
          <mxGeometry x="204" y="1430.5" width="40" height="100" as="geometry" />
        </mxCell>
        <mxCell id="67" value="搜索相关" style="strokeColor=#BAC8D3;fillColor=#23445D;fontSize=24;strokeWidth=2;horizontal=0;fontFamily=Helvetica;html=1;fontStyle=0;fontColor=#FFFFFF;" parent="1" vertex="1">
          <mxGeometry x="154" y="1430.5" width="50" height="200" as="geometry" />
        </mxCell>
        <mxCell id="68" value="" style="strokeColor=#FFFFFF;fillColor=#BAC8D3;fontSize=18;strokeWidth=2;fontFamily=Helvetica;html=1;opacity=60;fontColor=#FFFFFF;" parent="1" vertex="1">
          <mxGeometry x="244" y="930.5" width="646.6666666666666" height="100" as="geometry" />
        </mxCell>
        <mxCell id="69" value="" style="strokeColor=#FFFFFF;fillColor=#BAC8D3;fontSize=18;strokeWidth=2;fontFamily=Helvetica;html=1;opacity=90;fontColor=#FFFFFF;" parent="1" vertex="1">
          <mxGeometry x="244" y="1030.5" width="646.6666666666666" height="100" as="geometry" />
        </mxCell>
        <mxCell id="70" value="" style="strokeColor=#FFFFFF;fillColor=#BAC8D3;fontSize=18;strokeWidth=2;fontFamily=Helvetica;html=1;opacity=60;fontColor=#FFFFFF;" parent="1" vertex="1">
          <mxGeometry x="244" y="1130.5" width="646.6666666666666" height="100" as="geometry" />
        </mxCell>
        <mxCell id="71" value="" style="strokeColor=#FFFFFF;fillColor=#BAC8D3;fontSize=18;strokeWidth=2;fontFamily=Helvetica;html=1;opacity=90;fontColor=#FFFFFF;" parent="1" vertex="1">
          <mxGeometry x="244" y="1230.5" width="646.6666666666666" height="100" as="geometry" />
        </mxCell>
        <mxCell id="72" value="" style="strokeColor=#FFFFFF;fillColor=#BAC8D3;fontSize=18;strokeWidth=2;fontFamily=Helvetica;html=1;opacity=60;fontColor=#FFFFFF;" parent="1" vertex="1">
          <mxGeometry x="244" y="1330.5" width="646.6666666666666" height="100" as="geometry" />
        </mxCell>
        <mxCell id="73" value="" style="strokeColor=#FFFFFF;fillColor=#BAC8D3;fontSize=18;strokeWidth=2;fontFamily=Helvetica;html=1;opacity=90;fontColor=#FFFFFF;" parent="1" vertex="1">
          <mxGeometry x="244" y="1430.5" width="646.6666666666666" height="100" as="geometry" />
        </mxCell>
        <mxCell id="74" value="" style="strokeColor=#FFFFFF;fillColor=#BAC8D3;fontSize=18;strokeWidth=2;fontFamily=Helvetica;html=1;opacity=60;fontColor=#FFFFFF;" parent="1" vertex="1">
          <mxGeometry x="244" y="1530.5" width="646.6666666666666" height="100" as="geometry" />
        </mxCell>
        <mxCell id="75" value="" style="strokeColor=#FFFFFF;fillColor=#BAC8D3;fontSize=18;strokeWidth=2;fontFamily=Helvetica;html=1;opacity=60;fontColor=#FFFFFF;" parent="1" vertex="1">
          <mxGeometry x="890.6666666666666" y="930.5" width="647" height="100" as="geometry" />
        </mxCell>
        <mxCell id="76" value="" style="strokeColor=#FFFFFF;fillColor=#BAC8D3;fontSize=18;strokeWidth=2;fontFamily=Helvetica;html=1;opacity=90;fontColor=#FFFFFF;" parent="1" vertex="1">
          <mxGeometry x="890.6666666666666" y="1030.5" width="646.6666666666666" height="100" as="geometry" />
        </mxCell>
        <mxCell id="77" value="" style="strokeColor=#FFFFFF;fillColor=#BAC8D3;fontSize=18;strokeWidth=2;fontFamily=Helvetica;html=1;opacity=60;fontColor=#FFFFFF;" parent="1" vertex="1">
          <mxGeometry x="890.6666666666666" y="1130.5" width="646.6666666666666" height="100" as="geometry" />
        </mxCell>
        <mxCell id="78" value="" style="strokeColor=#FFFFFF;fillColor=#BAC8D3;fontSize=18;strokeWidth=2;fontFamily=Helvetica;html=1;opacity=90;fontColor=#FFFFFF;" parent="1" vertex="1">
          <mxGeometry x="890.6666666666666" y="1230.5" width="646.6666666666666" height="100" as="geometry" />
        </mxCell>
        <mxCell id="79" value="" style="strokeColor=#FFFFFF;fillColor=#BAC8D3;fontSize=18;strokeWidth=2;fontFamily=Helvetica;html=1;opacity=60;fontColor=#FFFFFF;" parent="1" vertex="1">
          <mxGeometry x="890.6666666666666" y="1330.5" width="646.6666666666666" height="100" as="geometry" />
        </mxCell>
        <mxCell id="80" value="" style="strokeColor=#FFFFFF;fillColor=#BAC8D3;fontSize=18;strokeWidth=2;fontFamily=Helvetica;html=1;opacity=90;fontColor=#FFFFFF;" parent="1" vertex="1">
          <mxGeometry x="890.6666666666666" y="1430.5" width="646.6666666666666" height="100" as="geometry" />
        </mxCell>
        <mxCell id="81" value="" style="strokeColor=#FFFFFF;fillColor=#BAC8D3;fontSize=18;strokeWidth=2;fontFamily=Helvetica;html=1;opacity=60;fontStyle=4;fontColor=#FFFFFF;" parent="1" vertex="1">
          <mxGeometry x="890.6666666666666" y="1530.5" width="646.6666666666666" height="100" as="geometry" />
        </mxCell>
        <mxCell id="82" value="" style="strokeColor=#FFFFFF;fillColor=#BAC8D3;fontSize=18;strokeWidth=2;fontFamily=Helvetica;html=1;opacity=60;fontColor=#FFFFFF;" parent="1" vertex="1">
          <mxGeometry x="1537.3333333333333" y="930.5" width="647" height="100" as="geometry" />
        </mxCell>
        <mxCell id="83" value="" style="strokeColor=#FFFFFF;fillColor=#BAC8D3;fontSize=18;strokeWidth=2;fontFamily=Helvetica;html=1;opacity=90;fontColor=#FFFFFF;" parent="1" vertex="1">
          <mxGeometry x="1537.3333333333333" y="1030.5" width="646.6666666666666" height="100" as="geometry" />
        </mxCell>
        <mxCell id="84" value="" style="strokeColor=#FFFFFF;fillColor=#BAC8D3;fontSize=18;strokeWidth=2;fontFamily=Helvetica;html=1;opacity=60;fontColor=#FFFFFF;" parent="1" vertex="1">
          <mxGeometry x="1537.3333333333333" y="1130.5" width="646.6666666666666" height="100" as="geometry" />
        </mxCell>
        <mxCell id="85" value="" style="strokeColor=#FFFFFF;fillColor=#BAC8D3;fontSize=18;strokeWidth=2;fontFamily=Helvetica;html=1;opacity=90;fontColor=#FFFFFF;" parent="1" vertex="1">
          <mxGeometry x="1537.3333333333333" y="1230.5" width="646.6666666666666" height="100" as="geometry" />
        </mxCell>
        <mxCell id="86" value="" style="strokeColor=#FFFFFF;fillColor=#BAC8D3;fontSize=18;strokeWidth=2;fontFamily=Helvetica;html=1;opacity=60;fontColor=#FFFFFF;" parent="1" vertex="1">
          <mxGeometry x="1537.3333333333333" y="1330.5" width="646.6666666666666" height="100" as="geometry" />
        </mxCell>
        <mxCell id="87" value="" style="strokeColor=#FFFFFF;fillColor=#BAC8D3;fontSize=18;strokeWidth=2;fontFamily=Helvetica;html=1;opacity=90;fontColor=#FFFFFF;" parent="1" vertex="1">
          <mxGeometry x="1537.3333333333333" y="1430.5" width="646.6666666666666" height="100" as="geometry" />
        </mxCell>
        <mxCell id="88" value="" style="strokeColor=#FFFFFF;fillColor=#BAC8D3;fontSize=18;strokeWidth=2;fontFamily=Helvetica;html=1;opacity=60;fontStyle=4;fontColor=#FFFFFF;" parent="1" vertex="1">
          <mxGeometry x="1537.3333333333333" y="1530.5" width="646.6666666666666" height="100" as="geometry" />
        </mxCell>
        <mxCell id="89" style="edgeStyle=orthogonalEdgeStyle;rounded=1;jumpStyle=none;html=1;exitX=1;exitY=0.5;entryX=0;entryY=0.5;labelBackgroundColor=#ffffff;startArrow=none;startFill=0;endArrow=classic;jettySize=auto;orthogonalLoop=1;strokeColor=#0C343D;strokeWidth=3;fontFamily=Helvetica;fontSize=11;fontColor=#FFFFFF;" parent="1" source="90" target="92" edge="1">
          <mxGeometry relative="1" as="geometry">
            <Array as="points">
              <mxPoint x="422" y="981" />
              <mxPoint x="422" y="1075" />
            </Array>
          </mxGeometry>
        </mxCell>
        <mxCell id="90" value="&lt;font&gt;华为云COS迁移&lt;/font&gt;" style="rounded=1;fillColor=#23445D;strokeColor=none;strokeWidth=2;fontFamily=Helvetica;html=1;gradientColor=none;fontColor=#FFFFFF;" parent="1" vertex="1">
          <mxGeometry x="270.3945578231293" y="955.5" width="127" height="50" as="geometry" />
        </mxCell>
        <mxCell id="91" value="图搜入库" style="rounded=1;fillColor=#23445D;strokeColor=none;strokeWidth=2;fontFamily=Helvetica;html=1;gradientColor=none;fontColor=#FFFFFF;" parent="1" vertex="1">
          <mxGeometry x="715.9047619047619" y="1050" width="127" height="50" as="geometry" />
        </mxCell>
        <mxCell id="92" value="图搜压测确定集群规模" style="rounded=1;fillColor=#23445D;strokeColor=none;strokeWidth=2;fontFamily=Helvetica;html=1;gradientColor=none;fontColor=#FFFFFF;" parent="1" vertex="1">
          <mxGeometry x="490.0037414965986" y="1050" width="127" height="50" as="geometry" />
        </mxCell>
        <mxCell id="96" value="技术交流" style="rounded=1;fillColor=#23445D;strokeColor=none;strokeWidth=2;fontFamily=Helvetica;html=1;gradientColor=none;fontColor=#FFFFFF;" parent="1" vertex="1">
          <mxGeometry x="1320.0037414965986" y="1355.5" width="127" height="50" as="geometry" />
        </mxCell>
        <mxCell id="97" value="定时下载和比对" style="rounded=1;fillColor=#23445D;strokeColor=none;strokeWidth=2;fontFamily=Helvetica;html=1;gradientColor=none;fontColor=#FFFFFF;" parent="1" vertex="1">
          <mxGeometry x="1020.0049659863945" y="1155.5" width="127" height="50" as="geometry" />
        </mxCell>
        <mxCell id="98" value="阿里云迁移" style="rounded=1;fillColor=#23445D;strokeColor=none;strokeWidth=2;fontFamily=Helvetica;html=1;gradientColor=none;fontColor=#FFFFFF;" parent="1" vertex="1">
          <mxGeometry x="1020.0014285714285" y="955.5" width="127" height="50" as="geometry" />
        </mxCell>
        <mxCell id="99" value="与图搜集成" style="rounded=1;fillColor=#23445D;strokeColor=none;strokeWidth=2;gradientColor=none;fontFamily=Helvetica;html=1;fontColor=#FFFFFF;" parent="1" vertex="1">
          <mxGeometry x="1808.078095238095" y="1455.5" width="127" height="50" as="geometry" />
        </mxCell>
        <mxCell id="100" value="接入测试" style="rounded=1;fillColor=#23445D;strokeColor=none;strokeWidth=2;fontFamily=Helvetica;html=1;gradientColor=none;fontColor=#FFFFFF;" parent="1" vertex="1">
          <mxGeometry x="1169.0049659863944" y="1255.5" width="127" height="50" as="geometry" />
        </mxCell>
        <mxCell id="101" value="技术交流" style="rounded=1;fillColor=#23445D;strokeColor=none;strokeWidth=2;fontFamily=Helvetica;html=1;gradientColor=none;fontColor=#FFFFFF;" parent="1" vertex="1">
          <mxGeometry x="1161.4149659863945" y="1555.5" width="127" height="50" as="geometry" />
        </mxCell>
        <mxCell id="102" value="技术及商务方案" style="rounded=1;fillColor=#23445D;strokeColor=none;strokeWidth=2;fontFamily=Helvetica;html=1;gradientColor=none;fontColor=#FFFFFF;" parent="1" vertex="1">
          <mxGeometry x="940.2585034013605" y="1455.5" width="127" height="50" as="geometry" />
        </mxCell>
        <mxCell id="103" value="提供爬取对象列表" style="rounded=1;fillColor=#23445D;strokeColor=none;strokeWidth=2;fontFamily=Helvetica;html=1;gradientColor=none;fontColor=#FFFFFF;" parent="1" vertex="1">
          <mxGeometry x="1320.0049659863944" y="1455.5" width="127" height="50" as="geometry" />
        </mxCell>
        <mxCell id="104" value="技术交流" style="rounded=1;fillColor=#23445D;strokeColor=none;strokeWidth=2;fontFamily=Helvetica;html=1;gradientColor=none;fontColor=#FFFFFF;" parent="1" vertex="1">
          <mxGeometry x="940.2585034013605" y="1255.5" width="127" height="50" as="geometry" />
        </mxCell>
        <mxCell id="106" value="区块链保护可行性探讨" style="rounded=1;fillColor=#23445D;strokeColor=none;strokeWidth=2;gradientColor=none;fontFamily=Helvetica;html=1;fontColor=#FFFFFF;" parent="1" vertex="1">
          <mxGeometry x="1586.9251700680272" y="1355.5" width="127" height="50" as="geometry" />
        </mxCell>
        <mxCell id="107" value="接入测试" style="rounded=1;fillColor=#23445D;strokeColor=none;strokeWidth=2;gradientColor=none;fontFamily=Helvetica;html=1;fontColor=#FFFFFF;" parent="1" vertex="1">
          <mxGeometry x="1808.0816326530612" y="1355.5" width="127" height="50" as="geometry" />
        </mxCell>
        <mxCell id="108" value="图搜入库" style="rounded=1;fillColor=#23445D;strokeColor=none;strokeWidth=2;gradientColor=none;fontFamily=Helvetica;html=1;fontColor=#FFFFFF;" parent="1" vertex="1">
          <mxGeometry x="1639.9978911564624" y="1050" width="127" height="50" as="geometry" />
        </mxCell>
        <mxCell id="109" value="提供数据并验证效果" style="rounded=1;fillColor=#23445D;strokeColor=none;strokeWidth=2;gradientColor=none;fontFamily=Helvetica;html=1;fontColor=#FFFFFF;" parent="1" vertex="1">
          <mxGeometry x="1586.9251700680272" y="1455.5" width="127" height="50" as="geometry" />
        </mxCell>
        <mxCell id="110" value="确定价格及方案" style="rounded=1;fillColor=#23445D;strokeColor=none;strokeWidth=2;gradientColor=none;fontFamily=Helvetica;html=1;fontColor=#FFFFFF;" parent="1" vertex="1">
          <mxGeometry x="1808.0816326530612" y="1555.5" width="127" height="50" as="geometry" />
        </mxCell>
        <mxCell id="111" value="迁移完成" style="rounded=1;fillColor=#23445D;strokeColor=none;strokeWidth=2;gradientColor=none;fontFamily=Helvetica;html=1;fontColor=#FFFFFF;" parent="1" vertex="1">
          <mxGeometry x="1570.0016326530613" y="955.5" width="127" height="50" as="geometry" />
        </mxCell>
        <mxCell id="114" value="" style="edgeStyle=elbowEdgeStyle;elbow=horizontal;strokeWidth=3;strokeColor=#0C343D;fontFamily=Helvetica;html=1;fontColor=#FFFFFF;" parent="1" source="92" target="91" edge="1">
          <mxGeometry x="6.448979591836746" y="830.5" width="131.97278911564624" height="100" as="geometry">
            <mxPoint x="6.448979591836746" y="930.5" as="sourcePoint" />
            <mxPoint x="138.421768707483" y="830.5" as="targetPoint" />
          </mxGeometry>
        </mxCell>
        <mxCell id="119" value="" style="edgeStyle=elbowEdgeStyle;elbow=horizontal;strokeWidth=3;strokeColor=#0C343D;fontFamily=Helvetica;html=1;fontColor=#FFFFFF;" parent="1" source="91" target="97" edge="1">
          <mxGeometry x="6.448979591836746" y="830.5" width="131.97278911564624" height="100" as="geometry">
            <mxPoint x="6.448979591836746" y="930.5" as="sourcePoint" />
            <mxPoint x="138.421768707483" y="830.5" as="targetPoint" />
          </mxGeometry>
        </mxCell>
        <mxCell id="121" value="" style="edgeStyle=elbowEdgeStyle;elbow=horizontal;strokeWidth=3;strokeColor=#0C343D;fontFamily=Helvetica;html=1;fontColor=#FFFFFF;" parent="1" source="104" target="100" edge="1">
          <mxGeometry x="6.448979591836746" y="830.5" width="131.97278911564624" height="100" as="geometry">
            <mxPoint x="6.448979591836746" y="930.5" as="sourcePoint" />
            <mxPoint x="138.421768707483" y="830.5" as="targetPoint" />
          </mxGeometry>
        </mxCell>
        <mxCell id="122" value="" style="edgeStyle=elbowEdgeStyle;elbow=horizontal;strokeWidth=3;strokeColor=#0C343D;fontFamily=Helvetica;html=1;fontColor=#FFFFFF;" parent="1" source="91" target="98" edge="1">
          <mxGeometry x="6.448979591836746" y="830.5" width="131.97278911564624" height="100" as="geometry">
            <mxPoint x="6.448979591836746" y="930.5" as="sourcePoint" />
            <mxPoint x="138.421768707483" y="830.5" as="targetPoint" />
          </mxGeometry>
        </mxCell>
        <mxCell id="124" value="" style="edgeStyle=elbowEdgeStyle;elbow=horizontal;strokeWidth=3;strokeColor=#0C343D;fontFamily=Helvetica;html=1;fontColor=#FFFFFF;" parent="1" source="102" target="103" edge="1">
          <mxGeometry x="6.448979591836746" y="830.5" width="131.97278911564624" height="100" as="geometry">
            <mxPoint x="6.448979591836746" y="930.5" as="sourcePoint" />
            <mxPoint x="138.421768707483" y="830.5" as="targetPoint" />
          </mxGeometry>
        </mxCell>
        <mxCell id="125" value="" style="edgeStyle=elbowEdgeStyle;elbow=horizontal;strokeWidth=3;strokeColor=#0C343D;fontFamily=Helvetica;html=1;fontColor=#FFFFFF;" parent="1" source="102" target="101" edge="1">
          <mxGeometry x="6.448979591836746" y="830.5" width="131.97278911564624" height="100" as="geometry">
            <mxPoint x="6.448979591836746" y="930.5" as="sourcePoint" />
            <mxPoint x="138.421768707483" y="830.5" as="targetPoint" />
          </mxGeometry>
        </mxCell>
        <mxCell id="126" value="" style="edgeStyle=elbowEdgeStyle;elbow=horizontal;strokeWidth=3;strokeColor=#0C343D;fontFamily=Helvetica;html=1;fontColor=#FFFFFF;entryX=0;entryY=0.5;entryDx=0;entryDy=0;" parent="1" source="101" target="1xZKk41ooYOYrkaOtgBi-158" edge="1">
          <mxGeometry x="6.448979591836746" y="830.5" width="131.97278911564624" height="100" as="geometry">
            <mxPoint x="6.448979591836746" y="930.5" as="sourcePoint" />
            <mxPoint x="138.421768707483" y="830.5" as="targetPoint" />
          </mxGeometry>
        </mxCell>
        <mxCell id="127" value="" style="edgeStyle=elbowEdgeStyle;elbow=horizontal;strokeWidth=3;strokeColor=#0C343D;fontFamily=Helvetica;html=1;fontColor=#FFFFFF;" parent="1" source="110" target="99" edge="1">
          <mxGeometry x="6.448979591836746" y="830.5" width="131.97278911564624" height="100" as="geometry">
            <mxPoint x="6.448979591836746" y="930.5" as="sourcePoint" />
            <mxPoint x="138.421768707483" y="830.5" as="targetPoint" />
          </mxGeometry>
        </mxCell>
        <mxCell id="128" value="" style="edgeStyle=elbowEdgeStyle;elbow=horizontal;strokeWidth=3;strokeColor=#0C343D;fontFamily=Helvetica;html=1;fontColor=#FFFFFF;entryX=0.5;entryY=0;entryDx=0;entryDy=0;" parent="1" source="108" target="1xZKk41ooYOYrkaOtgBi-146" edge="1">
          <mxGeometry x="6.448979591836746" y="830.5" width="131.97278911564624" height="100" as="geometry">
            <mxPoint x="6.448979591836746" y="930.5" as="sourcePoint" />
            <mxPoint x="138.421768707483" y="830.5" as="targetPoint" />
            <Array as="points">
              <mxPoint x="1861" y="1110" />
              <mxPoint x="1680" y="1160" />
            </Array>
          </mxGeometry>
        </mxCell>
        <mxCell id="129" value="" style="edgeStyle=elbowEdgeStyle;elbow=horizontal;strokeWidth=3;strokeColor=#0C343D;fontFamily=Helvetica;html=1;fontColor=#FFFFFF;entryX=0;entryY=0.5;entryDx=0;entryDy=0;" parent="1" source="109" target="99" edge="1">
          <mxGeometry x="6.448979591836746" y="830.5" width="131.97278911564624" height="100" as="geometry">
            <mxPoint x="6.448979591836746" y="930.5" as="sourcePoint" />
            <mxPoint x="138.421768707483" y="830.5" as="targetPoint" />
          </mxGeometry>
        </mxCell>
        <mxCell id="131" value="" style="edgeStyle=elbowEdgeStyle;elbow=horizontal;strokeWidth=3;strokeColor=#0C343D;fontFamily=Helvetica;html=1;fontColor=#FFFFFF;" parent="1" source="103" target="109" edge="1">
          <mxGeometry x="6.448979591836746" y="830.5" width="131.97278911564624" height="100" as="geometry">
            <mxPoint x="6.448979591836746" y="930.5" as="sourcePoint" />
            <mxPoint x="138.421768707483" y="830.5" as="targetPoint" />
          </mxGeometry>
        </mxCell>
        <mxCell id="132" value="" style="edgeStyle=elbowEdgeStyle;elbow=horizontal;strokeWidth=3;strokeColor=#0C343D;fontFamily=Helvetica;html=1;fontColor=#FFFFFF;" parent="1" source="100" edge="1">
          <mxGeometry x="6.448979591836746" y="830.5" width="131.97278911564624" height="100" as="geometry">
            <mxPoint x="6.448979591836746" y="930.5" as="sourcePoint" />
            <mxPoint x="1380" y="1281" as="targetPoint" />
          </mxGeometry>
        </mxCell>
        <mxCell id="133" value="" style="edgeStyle=elbowEdgeStyle;elbow=horizontal;strokeWidth=3;strokeColor=#0C343D;fontFamily=Helvetica;html=1;fontColor=#FFFFFF;entryX=0;entryY=0.5;entryDx=0;entryDy=0;" parent="1" source="97" target="1xZKk41ooYOYrkaOtgBi-147" edge="1">
          <mxGeometry x="6.448979591836746" y="830.5" width="131.97278911564624" height="100" as="geometry">
            <mxPoint x="6.448979591836746" y="930.5" as="sourcePoint" />
            <mxPoint x="138.421768707483" y="830.5" as="targetPoint" />
          </mxGeometry>
        </mxCell>
        <mxCell id="134" value="" style="edgeStyle=elbowEdgeStyle;elbow=horizontal;strokeWidth=3;strokeColor=#0C343D;fontFamily=Helvetica;html=1;fontColor=#FFFFFF;" parent="1" source="98" target="108" edge="1">
          <mxGeometry x="6.448979591836746" y="830.5" width="131.97278911564624" height="100" as="geometry">
            <mxPoint x="6.448979591836746" y="930.5" as="sourcePoint" />
            <mxPoint x="138.421768707483" y="830.5" as="targetPoint" />
            <Array as="points" />
          </mxGeometry>
        </mxCell>
        <mxCell id="135" value="" style="edgeStyle=elbowEdgeStyle;elbow=horizontal;strokeWidth=3;strokeColor=#0C343D;fontFamily=Helvetica;html=1;fontColor=#FFFFFF;" parent="1" source="98" target="111" edge="1">
          <mxGeometry x="6.448979591836746" y="830.5" width="131.97278911564624" height="100" as="geometry">
            <mxPoint x="6.448979591836746" y="930.5" as="sourcePoint" />
            <mxPoint x="138.421768707483" y="830.5" as="targetPoint" />
          </mxGeometry>
        </mxCell>
        <mxCell id="138" value="" style="edgeStyle=elbowEdgeStyle;elbow=horizontal;strokeWidth=3;strokeColor=#0C343D;fontFamily=Helvetica;html=1;fontColor=#FFFFFF;" parent="1" source="106" target="107" edge="1">
          <mxGeometry x="6.448979591836746" y="830.5" width="131.97278911564624" height="100" as="geometry">
            <mxPoint x="6.448979591836746" y="930.5" as="sourcePoint" />
            <mxPoint x="138.421768707483" y="830.5" as="targetPoint" />
          </mxGeometry>
        </mxCell>
        <mxCell id="140" value="" style="group;fontColor=#FFFFFF;" parent="1" vertex="1" connectable="0">
          <mxGeometry x="244" y="890.5" width="646.6666666666666" height="40" as="geometry" />
        </mxCell>
        <mxCell id="141" value="10月" style="strokeColor=#BAC8D3;fillColor=#5d7f99;fontSize=19;strokeWidth=2;fontFamily=Helvetica;html=1;labelBackgroundColor=none;fontColor=#FFFFFF;" parent="140" vertex="1">
          <mxGeometry width="646.6656362699642" height="40" as="geometry" />
        </mxCell>
        <mxCell id="142" value="11月" style="strokeColor=#BAC8D3;fillColor=#5d7f99;fontSize=19;strokeWidth=2;fontFamily=Helvetica;html=1;labelBackgroundColor=none;fontColor=#FFFFFF;" parent="140" vertex="1">
          <mxGeometry x="646.6656362699642" width="646.6656362699642" height="40" as="geometry" />
        </mxCell>
        <mxCell id="143" value="12月" style="strokeColor=#BAC8D3;fillColor=#5d7f99;fontSize=19;strokeWidth=2;fontFamily=Helvetica;html=1;labelBackgroundColor=none;fontColor=#FFFFFF;" parent="140" vertex="1">
          <mxGeometry x="1293.3312725399282" width="646.6666666666666" height="40" as="geometry" />
        </mxCell>
        <mxCell id="1xZKk41ooYOYrkaOtgBi-146" value="客户功能集成" style="rounded=1;fillColor=#23445D;strokeColor=none;strokeWidth=2;fontFamily=Helvetica;html=1;gradientColor=none;fontColor=#FFFFFF;" vertex="1" parent="1">
          <mxGeometry x="1797.3349659863943" y="1155.5" width="127" height="50" as="geometry" />
        </mxCell>
        <mxCell id="1xZKk41ooYOYrkaOtgBi-147" value="上线试运行" style="rounded=1;fillColor=#23445D;strokeColor=none;strokeWidth=2;gradientColor=none;fontFamily=Helvetica;html=1;fontColor=#FFFFFF;" vertex="1" parent="1">
          <mxGeometry x="1369.9978911564624" y="1156" width="127" height="50" as="geometry" />
        </mxCell>
        <mxCell id="1xZKk41ooYOYrkaOtgBi-148" value="" style="edgeStyle=elbowEdgeStyle;elbow=horizontal;strokeWidth=3;strokeColor=#0C343D;fontFamily=Helvetica;html=1;fontColor=#FFFFFF;entryX=0;entryY=0.5;entryDx=0;entryDy=0;" edge="1" parent="1" target="1xZKk41ooYOYrkaOtgBi-146">
          <mxGeometry x="349.43897959183676" y="830.08" width="131.97278911564624" height="100" as="geometry">
            <mxPoint x="1489.9949659863944" y="1180.08" as="sourcePoint" />
            <mxPoint x="1712.9878911564622" y="1180.58" as="targetPoint" />
          </mxGeometry>
        </mxCell>
        <mxCell id="1xZKk41ooYOYrkaOtgBi-149" value="正式上线" style="rounded=1;fillColor=#23445D;strokeColor=none;strokeWidth=2;fontFamily=Helvetica;html=1;gradientColor=none;fontColor=#FFFFFF;" vertex="1" parent="1">
          <mxGeometry x="2020.0049659863944" y="1155.5" width="127" height="50" as="geometry" />
        </mxCell>
        <mxCell id="1xZKk41ooYOYrkaOtgBi-151" value="" style="edgeStyle=elbowEdgeStyle;elbow=horizontal;strokeWidth=3;strokeColor=#0C343D;fontFamily=Helvetica;html=1;fontColor=#FFFFFF;" edge="1" parent="1">
          <mxGeometry x="218.36897959183673" y="630.08" width="131.97278911564624" height="100" as="geometry">
            <mxPoint x="1925.845170068027" y="1180.08" as="sourcePoint" />
            <mxPoint x="2020.0016326530613" y="1180.08" as="targetPoint" />
          </mxGeometry>
        </mxCell>
        <mxCell id="1xZKk41ooYOYrkaOtgBi-152" value="" style="edgeStyle=elbowEdgeStyle;elbow=horizontal;strokeWidth=3;strokeColor=#0C343D;fontFamily=Helvetica;html=1;fontColor=#FFFFFF;" edge="1" parent="1" target="106">
          <mxGeometry x="-292.06102040816324" y="834.58" width="131.97278911564624" height="100" as="geometry">
            <mxPoint x="1415" y="1381" as="sourcePoint" />
            <mxPoint x="1509.5716326530612" y="1384.58" as="targetPoint" />
          </mxGeometry>
        </mxCell>
        <mxCell id="1xZKk41ooYOYrkaOtgBi-153" value="银行卡三要素测试" style="rounded=1;fillColor=#23445D;strokeColor=none;strokeWidth=2;fontFamily=Helvetica;html=1;gradientColor=none;fontColor=#FFFFFF;" vertex="1" parent="1">
          <mxGeometry x="1380.0014285714285" y="1255.5" width="127" height="50" as="geometry" />
        </mxCell>
        <mxCell id="1xZKk41ooYOYrkaOtgBi-154" value="人脸核身接入测试" style="rounded=1;fillColor=#23445D;strokeColor=none;strokeWidth=2;fontFamily=Helvetica;html=1;gradientColor=none;fontColor=#FFFFFF;" vertex="1" parent="1">
          <mxGeometry x="1586.9249659863945" y="1255.5" width="127" height="50" as="geometry" />
        </mxCell>
        <mxCell id="1xZKk41ooYOYrkaOtgBi-155" value="" style="edgeStyle=elbowEdgeStyle;elbow=horizontal;strokeWidth=3;strokeColor=#0C343D;fontFamily=Helvetica;html=1;fontColor=#FFFFFF;" edge="1" parent="1">
          <mxGeometry x="-200.47102040816324" y="730.08" width="131.97278911564624" height="100" as="geometry">
            <mxPoint x="1507.0051700680272" y="1280.08" as="sourcePoint" />
            <mxPoint x="1590" y="1280" as="targetPoint" />
          </mxGeometry>
        </mxCell>
        <mxCell id="1xZKk41ooYOYrkaOtgBi-157" value="" style="edgeStyle=elbowEdgeStyle;elbow=horizontal;strokeWidth=3;strokeColor=#0C343D;fontFamily=Helvetica;html=1;fontColor=#FFFFFF;entryX=1;entryY=0.75;entryDx=0;entryDy=0;" edge="1" parent="1" target="1xZKk41ooYOYrkaOtgBi-146">
          <mxGeometry x="227.60897959183674" y="930.08" width="131.97278911564624" height="100" as="geometry">
            <mxPoint x="1935.085170068027" y="1480.08" as="sourcePoint" />
            <mxPoint x="2029.2416326530613" y="1480.08" as="targetPoint" />
            <Array as="points">
              <mxPoint x="1990" y="1350" />
            </Array>
          </mxGeometry>
        </mxCell>
        <mxCell id="1xZKk41ooYOYrkaOtgBi-158" value="接入测试" style="rounded=1;fillColor=#23445D;strokeColor=none;strokeWidth=2;gradientColor=none;fontFamily=Helvetica;html=1;fontColor=#FFFFFF;" vertex="1" parent="1">
          <mxGeometry x="1586.9251700680272" y="1555.5" width="127" height="50" as="geometry" />
        </mxCell>
        <mxCell id="1xZKk41ooYOYrkaOtgBi-159" value="" style="edgeStyle=elbowEdgeStyle;elbow=horizontal;strokeWidth=3;strokeColor=#0C343D;fontFamily=Helvetica;html=1;fontColor=#FFFFFF;entryX=0;entryY=0.5;entryDx=0;entryDy=0;" edge="1" parent="1">
          <mxGeometry x="6.448979591836746" y="930.08" width="131.97278911564624" height="100" as="geometry">
            <mxPoint x="1713.925170068027" y="1580.08" as="sourcePoint" />
            <mxPoint x="1808.078095238095" y="1580.08" as="targetPoint" />
          </mxGeometry>
        </mxCell>
        <mxCell id="1xZKk41ooYOYrkaOtgBi-160" value="标签生成" style="rounded=1;fillColor=#23445D;strokeColor=none;strokeWidth=2;gradientColor=none;fontFamily=Helvetica;html=1;fontColor=#FFFFFF;" vertex="1" parent="1">
          <mxGeometry x="1797.3378911564623" y="955.5" width="127" height="50" as="geometry" />
        </mxCell>
        <mxCell id="1xZKk41ooYOYrkaOtgBi-161" value="" style="edgeStyle=elbowEdgeStyle;elbow=horizontal;strokeWidth=3;strokeColor=#0C343D;fontFamily=Helvetica;html=1;fontColor=#FFFFFF;" edge="1" parent="1">
          <mxGeometry x="-10.47102040816327" y="430.08000000000004" width="131.97278911564624" height="100" as="geometry">
            <mxPoint x="1697.0051700680272" y="980.0799999999999" as="sourcePoint" />
            <mxPoint x="1800" y="980" as="targetPoint" />
          </mxGeometry>
        </mxCell>
        <mxCell id="1xZKk41ooYOYrkaOtgBi-162" value="" style="edgeStyle=elbowEdgeStyle;elbow=horizontal;strokeWidth=3;strokeColor=#0C343D;fontFamily=Helvetica;html=1;fontColor=#FFFFFF;" edge="1" parent="1">
          <mxGeometry x="163.78897959183675" y="735.5" width="131.97278911564624" height="100" as="geometry">
            <mxPoint x="1924.3378911564616" y="980" as="sourcePoint" />
            <mxPoint x="1924" y="1170" as="targetPoint" />
            <Array as="points">
              <mxPoint x="1960" y="1070" />
              <mxPoint x="1837.34" y="1065" />
            </Array>
          </mxGeometry>
        </mxCell>
      </root>
    </mxGraphModel>
  </diagram>
</mxfile>
